<svg width="256" height="512" viewBox="0 0 256 512" fill="none" xmlns="http://www.w3.org/2000/svg">
<path d="M64 0C50.7 0 40 10.7 40 24C40 37.3 50.7 48 64 48C68.4 48 72 51.6 72 56V120.9C72 133.1 64.8 144 54.8 151C21.7 174.1 0 212.5 0 256V448C0 483.3 28.7 512 64 512H192C227.3 512 256 483.3 256 448V256C256 212.5 234.3 174.1 201.2 151C191.2 144 184 133.1 184 120.9V56C184 51.6 187.6 48 192 48C205.3 48 216 37.3 216 24C216 10.7 205.3 0 192 0H72H64Z" fill="#D1CAB9"/>
<path d="M195.687 249.902C163.018 269.072 165.357 308.447 142.468 326.215C125.24 339.587 100.933 332.815 86.8775 327.062C86.8775 327.062 77.3525 339.085 70.52 355.112C68.2325 360.49 58.19 354.565 59.9525 350.012C82.2875 292.375 158.277 263.62 158.277 263.62C158.277 263.62 104.66 261.347 68.825 308.17C67.865 297.475 66.275 268.54 94.025 250.795C131.645 226.712 203.315 245.432 195.687 249.902Z" fill="#3A693A"/>
</svg>
